<?xml version="1.0" encoding="UTF-8"?>
<svg width="1024px" height="1024px" viewBox="0 0 1024 1024" version="1.1" xmlns="http://www.w3.org/2000/svg" xmlns:xlink="http://www.w3.org/1999/xlink">
    <title>Square Banner</title>
    <g id="Square-Banner" stroke="none" stroke-width="1" fill="none" fill-rule="evenodd">
        <g id="GUI" transform="translate(279.000000, 155.000000)">
            <rect id="Rectangle" fill="#8C1515" x="0" y="0" width="639" height="456" rx="16"></rect>
            <rect id="Rectangle" fill="#660B0B" x="36" y="29" width="566" height="61" rx="16"></rect>
            <rect id="Rectangle" fill="#660B0B" x="37" y="213" width="566" height="61" rx="16"></rect>
            <rect id="Rectangle" stroke="#D2C295" stroke-width="4" fill="#660B0B" x="38" y="123" width="562" height="57" rx="16"></rect>
            <rect id="Rectangle" fill="#D2C295" x="320" y="312" width="282" height="103" rx="16"></rect>
        </g>
        <g id="CLI" transform="translate(467.000000, 629.000000)">
            <rect id="Rectangle" fill="#D2C295" x="0" y="0" width="515" height="240" rx="16"></rect>
            <g id="&gt;-badger-run" transform="translate(37.741538, 28.830769)" fill="#8C1515" fill-rule="nonzero">
                <polygon id="Path" points="0 12.0615385 2.92923077 7.33538462 22.08 19.1753846 22.08 24.2707692 3.07692308 36.1107692 0 31.6061538 16.4923077 21.7353846"></polygon>
                <path d="M65.7969231,14.0307692 C66.6666667,12.865641 67.7005128,11.9630769 68.8984615,11.3230769 C70.0964103,10.6830769 71.3764103,10.3630769 72.7384615,10.3630769 C76.0205128,10.3630769 78.4533333,11.5651282 80.0369231,13.9692308 C81.6205128,16.3733333 82.4123077,19.7415385 82.4123077,24.0738462 C82.4123077,26.7651282 82.0102564,29.1569231 81.2061538,31.2492308 C80.4020513,33.3415385 79.2205128,34.974359 77.6615385,36.1476923 C76.1025641,37.3210256 74.2235897,37.9076923 72.0246154,37.9076923 C70.6297436,37.9076923 69.3661538,37.6369231 68.2338462,37.0953846 C67.1015385,36.5538462 66.1415385,35.7497436 65.3538462,34.6830769 L65.0584615,37.1692308 L59.2984615,37.1692308 L59.2984615,0.689230769 L65.7969231,0 L65.7969231,14.0307692 Z M70.3507692,33.0584615 C72.0574359,33.0584615 73.3661538,32.3323077 74.2769231,30.88 C75.1876923,29.4276923 75.6430769,27.1835897 75.6430769,24.1476923 C75.6430769,20.9805128 75.2369231,18.7035897 74.4246154,17.3169231 C73.6123077,15.9302564 72.4184615,15.2369231 70.8430769,15.2369231 C68.9230769,15.2369231 67.2410256,16.3774359 65.7969231,18.6584615 L65.7969231,30.3261538 C66.9784615,32.1476923 68.4964103,33.0584615 70.3507692,33.0584615 Z" id="Shape"></path>
                <path d="M109.636923,30.3015385 C109.636923,31.2697436 109.780513,31.9876923 110.067692,32.4553846 C110.354872,32.9230769 110.834872,33.2717949 111.507692,33.5015385 L110.104615,37.8584615 C108.660513,37.7107692 107.458462,37.3538462 106.498462,36.7876923 C105.538462,36.2215385 104.804103,35.4051282 104.295385,34.3384615 C103.34359,35.5035897 102.121026,36.3897436 100.627692,36.9969231 C99.134359,37.6041026 97.5425641,37.9076923 95.8523077,37.9076923 C94.1128205,37.9076923 92.5866667,37.5671795 91.2738462,36.8861538 C89.9610256,36.2051282 88.9517949,35.2492308 88.2461538,34.0184615 C87.5405128,32.7876923 87.1876923,31.3682051 87.1876923,29.76 C87.1876923,27.9220513 87.6717949,26.3548718 88.64,25.0584615 C89.6082051,23.7620513 91.0276923,22.7774359 92.8984615,22.1046154 C94.7692308,21.4317949 97.0338462,21.0953846 99.6923077,21.0953846 L103.335385,21.0953846 L103.335385,19.6923077 C103.335385,18.1825641 102.867692,17.0707692 101.932308,16.3569231 C100.996923,15.6430769 99.6184615,15.2861538 97.7969231,15.2861538 C96.9107692,15.2861538 95.8358974,15.4051282 94.5723077,15.6430769 C93.3087179,15.8810256 92.0451282,16.2133333 90.7815385,16.64 L89.2307692,12.1846154 C90.8225641,11.5938462 92.4594872,11.1425641 94.1415385,10.8307692 C95.8235897,10.5189744 97.3866667,10.3630769 98.8307692,10.3630769 C102.424615,10.3630769 105.124103,11.1302564 106.929231,12.6646154 C108.734359,14.1989744 109.636923,16.4020513 109.636923,19.2738462 L109.636923,30.3015385 Z M97.9692308,33.2061538 C98.9866667,33.2061538 99.9917949,32.9230769 100.984615,32.3569231 C101.977436,31.7907692 102.761026,31.0153846 103.335385,30.0307692 L103.335385,24.96 L100.775385,24.96 C98.4123077,24.96 96.6810256,25.3333333 95.5815385,26.08 C94.4820513,26.8266667 93.9323077,27.9302564 93.9323077,29.3907692 C93.9323077,30.6215385 94.2769231,31.5651282 94.9661538,32.2215385 C95.6553846,32.8779487 96.6564103,33.2061538 97.9692308,33.2061538 Z" id="Shape"></path>
                <path d="M133.489231,0 L139.987692,0.689230769 L139.987692,37.1692308 L134.227692,37.1692308 L133.833846,34.0923077 C132.980513,35.2902564 131.942564,36.225641 130.72,36.8984615 C129.497436,37.5712821 128.114872,37.9076923 126.572308,37.9076923 C123.372308,37.9076923 120.955897,36.6769231 119.323077,34.2153846 C117.690256,31.7538462 116.873846,28.3815385 116.873846,24.0984615 C116.873846,21.44 117.288205,19.0728205 118.116923,16.9969231 C118.945641,14.9210256 120.139487,13.2964103 121.698462,12.1230769 C123.257436,10.9497436 125.087179,10.3630769 127.187692,10.3630769 C129.714872,10.3630769 131.815385,11.2410256 133.489231,12.9969231 L133.489231,0 Z M128.935385,15.2123077 C127.245128,15.2123077 125.940513,15.9425641 125.021538,17.4030769 C124.102564,18.8635897 123.643077,21.1035897 123.643077,24.1230769 C123.643077,27.2738462 124.057436,29.5466667 124.886154,30.9415385 C125.714872,32.3364103 126.908718,33.0338462 128.467692,33.0338462 C130.387692,33.0338462 132.061538,31.9015385 133.489231,29.6369231 L133.489231,17.7723077 C132.225641,16.065641 130.707692,15.2123077 128.935385,15.2123077 Z" id="Shape"></path>
                <path d="M172.012308,12.5046154 C171.060513,12.8492308 169.977436,13.0912821 168.763077,13.2307692 C167.548718,13.3702564 166.112821,13.44 164.455385,13.44 C166.09641,14.145641 167.318974,15.0358974 168.123077,16.1107692 C168.927179,17.185641 169.329231,18.5107692 169.329231,20.0861538 C169.329231,21.7764103 168.898462,23.2902564 168.036923,24.6276923 C167.175385,25.9651282 165.944615,27.0071795 164.344615,27.7538462 C162.744615,28.5005128 160.869744,28.8738462 158.72,28.8738462 C157.489231,28.8738462 156.381538,28.7507692 155.396923,28.5046154 C155.085128,28.6851282 154.834872,28.9476923 154.646154,29.2923077 C154.457436,29.6369231 154.363077,29.9897436 154.363077,30.3507692 C154.363077,30.9087179 154.580513,31.3476923 155.015385,31.6676923 C155.450256,31.9876923 156.258462,32.1476923 157.44,32.1476923 L161.870769,32.1476923 C163.757949,32.1476923 165.435897,32.4676923 166.904615,33.1076923 C168.373333,33.7476923 169.513846,34.6297436 170.326154,35.7538462 C171.138462,36.8779487 171.544615,38.1374359 171.544615,39.5323077 C171.544615,41.2882051 171.031795,42.7938462 170.006154,44.0492308 C168.980513,45.3046154 167.466667,46.2605128 165.464615,46.9169231 C163.462564,47.5733333 161.017436,47.9015385 158.129231,47.9015385 C155.060513,47.9015385 152.644103,47.5897436 150.88,46.9661538 C149.115897,46.3425641 147.872821,45.4358974 147.150769,44.2461538 C146.428718,43.0564103 146.067692,41.5507692 146.067692,39.7292308 L151.852308,39.7292308 C151.852308,40.6317949 152.028718,41.3415385 152.381538,41.8584615 C152.734359,42.3753846 153.370256,42.7610256 154.289231,43.0153846 C155.208205,43.2697436 156.529231,43.3969231 158.252308,43.3969231 C160.730256,43.3969231 162.486154,43.105641 163.52,42.5230769 C164.553846,41.9405128 165.070769,41.0912821 165.070769,39.9753846 C165.070769,39.04 164.672821,38.3097436 163.876923,37.7846154 C163.081026,37.2594872 161.969231,36.9969231 160.541538,36.9969231 L156.233846,36.9969231 C154.54359,36.9969231 153.13641,36.7671795 152.012308,36.3076923 C150.888205,35.8482051 150.055385,35.2328205 149.513846,34.4615385 C148.972308,33.6902564 148.701538,32.8369231 148.701538,31.9015385 C148.701538,30.9661538 148.951795,30.08 149.452308,29.2430769 C149.952821,28.4061538 150.670769,27.6923077 151.606154,27.1015385 C150.014359,26.2646154 148.857436,25.2512821 148.135385,24.0615385 C147.413333,22.8717949 147.052308,21.4235897 147.052308,19.7169231 C147.052308,17.8625641 147.528205,16.2297436 148.48,14.8184615 C149.431795,13.4071795 150.756923,12.3158974 152.455385,11.5446154 C154.153846,10.7733333 156.094359,10.3876923 158.276923,10.3876923 C160.180513,10.4041026 161.842051,10.2892308 163.261538,10.0430769 C164.681026,9.79692308 165.90359,9.46871795 166.929231,9.05846154 C167.954872,8.64820513 169.107692,8.10666667 170.387692,7.43384615 L172.012308,12.5046154 Z M158.4,14.72 C156.890256,14.72 155.721026,15.1630769 154.892308,16.0492308 C154.06359,16.9353846 153.649231,18.1415385 153.649231,19.6676923 C153.649231,21.2266667 154.067692,22.4533333 154.904615,23.3476923 C155.741538,24.2420513 156.914872,24.6892308 158.424615,24.6892308 C159.901538,24.6892308 161.033846,24.2502564 161.821538,23.3723077 C162.609231,22.494359 163.003077,21.2348718 163.003077,19.5938462 C163.003077,16.3446154 161.468718,14.72 158.4,14.72 Z" id="Shape"></path>
                <path d="M182.990769,26.1169231 C183.171282,28.4635897 183.864615,30.2030769 185.070769,31.3353846 C186.276923,32.4676923 187.82359,33.0338462 189.710769,33.0338462 C190.908718,33.0338462 192.057436,32.8451282 193.156923,32.4676923 C194.25641,32.0902564 195.364103,31.5323077 196.48,30.7938462 L199.187692,34.5107692 C197.924103,35.5774359 196.447179,36.4102564 194.756923,37.0092308 C193.066667,37.6082051 191.245128,37.9076923 189.292308,37.9076923 C186.518974,37.9076923 184.16,37.3333333 182.215385,36.1846154 C180.270769,35.0358974 178.802051,33.4276923 177.809231,31.36 C176.81641,29.2923077 176.32,26.8964103 176.32,24.1723077 C176.32,21.5630769 176.808205,19.2123077 177.784615,17.12 C178.761026,15.0276923 180.172308,13.3784615 182.018462,12.1723077 C183.864615,10.9661538 186.043077,10.3630769 188.553846,10.3630769 C190.916923,10.3630769 192.97641,10.8882051 194.732308,11.9384615 C196.488205,12.9887179 197.842051,14.5025641 198.793846,16.48 C199.745641,18.4574359 200.221538,20.8082051 200.221538,23.5323077 C200.221538,24.4676923 200.180513,25.3292308 200.098462,26.1169231 L182.990769,26.1169231 Z M188.578462,14.9415385 C186.953846,14.9415385 185.645128,15.52 184.652308,16.6769231 C183.659487,17.8338462 183.081026,19.5938462 182.916923,21.9569231 L193.895385,21.9569231 C193.862564,19.7087179 193.398974,17.9774359 192.504615,16.7630769 C191.610256,15.5487179 190.301538,14.9415385 188.578462,14.9415385 Z" id="Shape"></path>
                <path d="M226.092308,10.3876923 C226.88,10.3876923 227.597949,10.4492308 228.246154,10.5723077 C228.894359,10.6953846 229.538462,10.8717949 230.178462,11.1015385 L229.021538,21.2676923 L224.689231,21.2676923 L224.689231,16.1723077 C223.031795,16.3035897 221.58359,17.0502564 220.344615,18.4123077 C219.105641,19.774359 218.125128,21.6205128 217.403077,23.9507692 L217.403077,32.6646154 L222.596923,32.6646154 L222.596923,37.1692308 L207.236923,37.1692308 L207.236923,32.6646154 L210.904615,32.6646154 L210.904615,15.5815385 L207.236923,15.5815385 L207.236923,11.1015385 L215.852308,11.1015385 L217.058462,17.0830769 C218.026667,14.8348718 219.236923,13.1569231 220.689231,12.0492308 C222.141538,10.9415385 223.942564,10.3876923 226.092308,10.3876923 Z" id="Path"></path>
                <path d="M285.169231,10.3876923 C285.956923,10.3876923 286.674872,10.4492308 287.323077,10.5723077 C287.971282,10.6953846 288.615385,10.8717949 289.255385,11.1015385 L288.098462,21.2676923 L283.766154,21.2676923 L283.766154,16.1723077 C282.108718,16.3035897 280.660513,17.0502564 279.421538,18.4123077 C278.182564,19.774359 277.202051,21.6205128 276.48,23.9507692 L276.48,32.6646154 L281.673846,32.6646154 L281.673846,37.1692308 L266.313846,37.1692308 L266.313846,32.6646154 L269.981538,32.6646154 L269.981538,15.5815385 L266.313846,15.5815385 L266.313846,11.1015385 L274.929231,11.1015385 L276.135385,17.0830769 C277.10359,14.8348718 278.313846,13.1569231 279.766154,12.0492308 C281.218462,10.9415385 283.019487,10.3876923 285.169231,10.3876923 Z" id="Path"></path>
                <path d="M302.104615,29.1692308 C302.104615,30.5476923 302.375385,31.5323077 302.916923,32.1230769 C303.458462,32.7138462 304.278974,33.0092308 305.378462,33.0092308 C306.379487,33.0092308 307.368205,32.705641 308.344615,32.0984615 C309.321026,31.4912821 310.112821,30.7035897 310.72,29.7353846 L310.72,11.1015385 L317.218462,11.1015385 L317.218462,37.1692308 L311.556923,37.1692308 L311.212308,33.9692308 C310.293333,35.2328205 309.111795,36.2051282 307.667692,36.8861538 C306.22359,37.5671795 304.697436,37.9076923 303.089231,37.9076923 C300.611282,37.9076923 298.744615,37.2102564 297.489231,35.8153846 C296.233846,34.4205128 295.606154,32.4676923 295.606154,29.9569231 L295.606154,11.1015385 L302.104615,11.1015385 L302.104615,29.1692308 Z" id="Path"></path>
                <path d="M325.144615,37.1692308 L325.144615,11.1015385 L330.806154,11.1015385 L331.273846,14.3261538 C332.389744,13.0133333 333.645128,12.0246154 335.04,11.36 C336.434872,10.6953846 337.93641,10.3630769 339.544615,10.3630769 C341.874872,10.3630769 343.659487,11.0358974 344.898462,12.3815385 C346.137436,13.7271795 346.756923,15.6307692 346.756923,18.0923077 L346.756923,37.1692308 L340.258462,37.1692308 L340.258462,20.6276923 C340.258462,19.2492308 340.172308,18.1784615 340,17.4153846 C339.827692,16.6523077 339.515897,16.094359 339.064615,15.7415385 C338.613333,15.3887179 337.952821,15.2123077 337.083077,15.2123077 C335.179487,15.2123077 333.366154,16.3692308 331.643077,18.6830769 L331.643077,37.1692308 L325.144615,37.1692308 Z" id="Path"></path>
            </g>
        </g>
        <g id="Badger-Face" transform="translate(41.000000, 440.000000)">
            <path d="M275.653607,24.8808527 C280.015829,22.4980997 284.930882,22.1090616 289.351067,23.4062672 C293.771252,24.7034729 297.69657,27.6869224 300.079323,32.0491445 C301.553853,34.7486388 302.312004,37.7809643 302.28143,40.8567688 L302.28143,40.8567688 L301.844901,84.7728775 C301.783906,90.9091556 303.606171,96.9165469 307.065931,101.984849 L307.065931,101.984849 L347.19107,160.765316 C349.393399,163.99157 350.429427,167.743976 350.31624,171.461391 C350.203053,175.178806 348.940652,178.86123 346.546122,181.94752 L346.546122,181.94752 L231.651726,330.033934 C228.242125,334.428539 222.992369,337 217.430182,337 L217.430182,337 L144.529912,337 C138.985034,337 133.749609,334.44444 130.338635,330.072835 L130.338635,330.072835 L15.4449326,182.821639 C13.0485839,179.750406 11.7761813,176.082641 11.6471068,172.375072 C11.5180323,168.667503 12.5322859,164.92013 14.7092495,161.689684 L14.7092495,161.689684 L54.468006,102.690749 C57.8630899,97.6527058 59.6485838,91.7026093 59.5882618,85.6276743 L59.5882618,85.6276743 L59.1436987,40.8564791 C59.0943451,35.8861614 61.0642832,31.3663787 64.289139,28.0768371 C67.5139948,24.7872954 71.9937685,22.7279948 76.9640862,22.6786412 C80.0398447,22.6481 83.0721181,23.4062587 85.7715675,24.8807742 L85.7715675,24.8807742 L133.362127,50.8760807 L228.062875,50.8760807 Z" id="Face" stroke="#000000" stroke-width="12" fill="#FFFFFF"></path>
            <path d="M132.814318,341.594678 L133.219239,342.187675 L132.814318,342.187675 L132.814318,341.594678 Z M209.2671,311.228293 L225.757197,335.385682 C227.002674,337.210259 226.53322,339.69903 224.708642,340.944506 C224.050975,341.393437 223.274284,341.635862 222.478017,341.640741 L140.849145,342.140923 C138.640048,342.154459 136.838247,340.374605 136.824711,338.165507 C136.819729,337.352526 137.062595,336.557327 137.520951,335.885856 L154.352583,311.228249 C158.824164,304.677577 166.243341,300.759101 174.174692,300.759101 L189.444961,300.759101 C197.376331,300.759101 204.795523,304.677596 209.2671,311.228293 Z" id="Noise" fill="#000000"></path>
            <path d="M251.997499,25.7609121 L286.279642,44.8767354 L286.279642,44.8767354 L308.811172,44.8767354 L308.811172,270.946994 C308.811172,275.813865 307.331526,280.565729 304.568512,284.572247 L292.164056,302.559365 C288.200924,308.306117 280.329508,309.752026 274.582756,305.788894 C271.925991,303.956709 270.070678,301.177683 269.397131,298.021477 L216.8378,51.7313548 C214.071453,38.7684094 222.33743,26.0172992 235.300376,23.2509531 C240.986376,22.0375371 246.91954,22.9294271 251.997499,25.7609121 Z" id="Right-Steak" fill="#000000" transform="translate(257.304643, 163.349283) scale(-1, 1) translate(-257.304643, -163.349283) "></path>
            <path d="M98.9370963,25.7609121 L133.219239,44.8767354 L133.219239,44.8767354 L155.750769,44.8767354 L155.750769,270.946994 C155.750769,275.813865 154.271124,280.565729 151.508109,284.572247 L139.103653,302.559365 C135.140521,308.306117 127.269105,309.752026 121.522353,305.788894 C118.865588,303.956709 117.010275,301.177683 116.336728,298.021477 L63.7773969,51.7313548 C61.0110507,38.7684094 69.2770276,26.0172992 82.239973,23.2509531 C87.9259732,22.0375371 93.859137,22.9294271 98.9370963,25.7609121 Z" id="Left-Steak" fill="#000000"></path>
        </g>
    </g>
</svg>