<?xml version="1.0" encoding="UTF-8"?>
<svg width="1024px" height="1024px" viewBox="0 0 1024 1024" version="1.1" xmlns="http://www.w3.org/2000/svg" xmlns:xlink="http://www.w3.org/1999/xlink">
    <title>Square Banner C</title>
    <g id="Square-Banner-C" stroke="none" stroke-width="1" fill="none" fill-rule="evenodd">
        <g id="Triangle" transform="translate(49.000000, 180.000000)" stroke="#D2C295" stroke-width="16">
            <line x1="105" y1="105" x2="463" y2="559" id="Line-2" stroke-linecap="square"></line>
            <line x1="822" y1="105" x2="464" y2="559" id="Line-2" stroke-linecap="square"></line>
            <line x1="822" y1="105" x2="105" y2="105" id="Line-2" stroke-linecap="square"></line>
            <circle id="Oval" fill="#8C1515" cx="104.5" cy="104.5" r="96.5"></circle>
            <circle id="Oval" fill="#8C1515" cx="821.5" cy="104.5" r="96.5"></circle>
            <circle id="Oval" fill="#8C1515" cx="463.5" cy="558.5" r="96.5"></circle>
        </g>
        <g id="Badger-Face" transform="translate(331.000000, 285.000000)">
            <path d="M275.653607,24.8808527 C280.015829,22.4980997 284.930882,22.1090616 289.351067,23.4062672 C293.771252,24.7034729 297.69657,27.6869224 300.079323,32.0491445 C301.553853,34.7486388 302.312004,37.7809643 302.28143,40.8567688 L302.28143,40.8567688 L301.844901,84.7728775 C301.783906,90.9091556 303.606171,96.9165469 307.065931,101.984849 L307.065931,101.984849 L347.19107,160.765316 C349.393399,163.99157 350.429427,167.743976 350.31624,171.461391 C350.203053,175.178806 348.940652,178.86123 346.546122,181.94752 L346.546122,181.94752 L231.651726,330.033934 C228.242125,334.428539 222.992369,337 217.430182,337 L217.430182,337 L144.529912,337 C138.985034,337 133.749609,334.44444 130.338635,330.072835 L130.338635,330.072835 L15.4449326,182.821639 C13.0485839,179.750406 11.7761813,176.082641 11.6471068,172.375072 C11.5180323,168.667503 12.5322859,164.92013 14.7092495,161.689684 L14.7092495,161.689684 L54.468006,102.690749 C57.8630899,97.6527058 59.6485838,91.7026093 59.5882618,85.6276743 L59.5882618,85.6276743 L59.1436987,40.8564791 C59.0943451,35.8861614 61.0642832,31.3663787 64.289139,28.0768371 C67.5139948,24.7872954 71.9937685,22.7279948 76.9640862,22.6786412 C80.0398447,22.6481 83.0721181,23.4062587 85.7715675,24.8807742 L85.7715675,24.8807742 L133.362127,50.8760807 L228.062875,50.8760807 Z" id="Face" stroke="#000000" stroke-width="12" fill="#FFFFFF"></path>
            <path d="M132.814318,341.594678 L133.219239,342.187675 L132.814318,342.187675 L132.814318,341.594678 Z M209.2671,311.228293 L225.757197,335.385682 C227.002674,337.210259 226.53322,339.69903 224.708642,340.944506 C224.050975,341.393437 223.274284,341.635862 222.478017,341.640741 L140.849145,342.140923 C138.640048,342.154459 136.838247,340.374605 136.824711,338.165507 C136.819729,337.352526 137.062595,336.557327 137.520951,335.885856 L154.352583,311.228249 C158.824164,304.677577 166.243341,300.759101 174.174692,300.759101 L189.444961,300.759101 C197.376331,300.759101 204.795523,304.677596 209.2671,311.228293 Z" id="Noise" fill="#000000"></path>
            <path d="M251.997499,25.7609121 L286.279642,44.8767354 L286.279642,44.8767354 L308.811172,44.8767354 L308.811172,270.946994 C308.811172,275.813865 307.331526,280.565729 304.568512,284.572247 L292.164056,302.559365 C288.200924,308.306117 280.329508,309.752026 274.582756,305.788894 C271.925991,303.956709 270.070678,301.177683 269.397131,298.021477 L216.8378,51.7313548 C214.071453,38.7684094 222.33743,26.0172992 235.300376,23.2509531 C240.986376,22.0375371 246.91954,22.9294271 251.997499,25.7609121 Z" id="Right-Steak" fill="#000000" transform="translate(257.304643, 163.349283) scale(-1, 1) translate(-257.304643, -163.349283) "></path>
            <path d="M98.9370963,25.7609121 L133.219239,44.8767354 L133.219239,44.8767354 L155.750769,44.8767354 L155.750769,270.946994 C155.750769,275.813865 154.271124,280.565729 151.508109,284.572247 L139.103653,302.559365 C135.140521,308.306117 127.269105,309.752026 121.522353,305.788894 C118.865588,303.956709 117.010275,301.177683 116.336728,298.021477 L63.7773969,51.7313548 C61.0110507,38.7684094 69.2770276,26.0172992 82.239973,23.2509531 C87.9259732,22.0375371 93.859137,22.9294271 98.9370963,25.7609121 Z" id="Left-Steak" fill="#000000"></path>
        </g>
    </g>
</svg>