<?xml version="1.0" encoding="UTF-8"?>
<svg width="512px" height="512px" viewBox="0 0 512 512" version="1.1" xmlns="http://www.w3.org/2000/svg" xmlns:xlink="http://www.w3.org/1999/xlink">
    <title>Icon</title>
    <g id="Icon" stroke="none" stroke-width="1" fill="none" fill-rule="evenodd">
        <g id="Badger-Face" transform="translate(16.000000, 29.000000)">
            <path d="M376.275612,24.8808527 C380.637834,22.4980997 385.552887,22.1090616 389.973072,23.4062672 C394.393257,24.7034729 398.318575,27.6869224 400.701328,32.0491445 C402.175858,34.7486388 402.934008,37.7809643 402.903435,40.8567688 L402.903435,40.8567688 L402.167604,114.883588 C402.106609,121.019866 403.928874,127.027257 407.388634,132.095559 L407.388634,132.095559 L465.19107,216.772006 C467.393399,219.99826 468.429427,223.750666 468.31624,227.468081 C468.203053,231.185496 466.940652,234.86792 464.546122,237.95421 L464.546122,237.95421 L306.358758,441.840564 C302.949157,446.235168 297.699401,448.80663 292.137214,448.80663 L292.137214,448.80663 L187.823144,448.80663 C182.278266,448.80663 177.042841,446.25107 173.631867,441.879465 L173.631867,441.879465 L15.4449326,239.142371 C13.0485839,236.071139 11.7761813,232.403373 11.6471068,228.695804 C11.5180323,224.988235 12.5322859,221.240862 14.7092495,218.010416 L14.7092495,218.010416 L71.9602521,133.054334 C75.355336,128.016291 77.1408299,122.066195 77.0805078,115.99126 L77.0805078,115.99126 L76.3344446,40.8564791 C76.285091,35.8861614 78.255029,31.3663787 81.4798848,28.0768371 C84.7047407,24.7872954 89.1845143,22.7279948 94.1548321,22.6786412 C97.2305906,22.6481 100.262864,23.4062587 102.962313,24.8807742 L102.962313,24.8807742 L177.333098,65.5041954 L301.904477,65.5041954 Z" id="Face" stroke="#000000" stroke-width="12" fill="#FFFFFF"></path>
            <path d="M176.107383,452.943219 L176.644295,453.729514 L176.107383,453.729514 L176.107383,452.943219 Z M275.151753,409.26579 L300.728114,446.734223 C301.973591,448.558801 301.504137,451.047571 299.679559,452.293048 C299.021892,452.741979 298.245201,452.984404 297.448934,452.989283 L184.274201,453.682762 C182.065103,453.696298 180.263303,451.916444 180.249767,449.707346 C180.244785,448.894365 180.487651,448.099166 180.946007,447.427695 L206.995894,409.265746 C211.467475,402.715075 218.886652,398.796599 226.818003,398.796599 L255.329614,398.796599 C263.260984,398.796599 270.680176,402.715093 275.151753,409.26579 Z" id="Noise" fill="#000000"></path>
            <path d="M319.080862,25.7609121 L379.597315,59.5050636 L379.597315,59.5050636 L409.473377,59.5050636 L409.473377,361.702738 C409.473377,366.569609 407.993732,371.321474 405.230717,375.327992 L387.399853,401.183689 C382.144871,408.803691 371.707634,410.720919 364.087632,405.465937 C360.56485,403.03652 358.104766,399.351624 357.211665,395.166599 L283.921163,51.7313548 C281.154817,38.7684094 289.420794,26.0172992 302.383739,23.2509531 C308.069739,22.0375371 314.002903,22.9294271 319.080862,25.7609121 Z" id="Right-Steak" fill="#000000" transform="translate(341.177427, 216.595734) scale(-1, 1) translate(-341.177427, -216.595734) "></path>
            <path d="M116.127842,25.7609121 L176.644295,59.5050636 L176.644295,59.5050636 L206.520357,59.5050636 L206.520357,361.702738 C206.520357,366.569609 205.040711,371.321474 202.277697,375.327992 L184.446833,401.183689 C179.191851,408.803691 168.754614,410.720919 161.134612,405.465937 C157.61183,403.03652 155.151746,399.351624 154.258645,395.166599 L80.9681427,51.7313548 C78.2017965,38.7684094 86.4677734,26.0172992 99.4307188,23.2509531 C105.116719,22.0375371 111.049883,22.9294271 116.127842,25.7609121 Z" id="Left-Steak" fill="#000000"></path>
        </g>
    </g>
</svg>